<?xml version="1.0" standalone="no"?><!DOCTYPE svg PUBLIC "-//W3C//DTD SVG 1.1//EN" "http://www.w3.org/Graphics/SVG/1.1/DTD/svg11.dtd"><svg t="1778512504416" class="icon" viewBox="0 0 1024 1024" version="1.1" xmlns="http://www.w3.org/2000/svg" p-id="2176" xmlns:xlink="http://www.w3.org/1999/xlink" width="200" height="200"><path d="M725.333333 341.333333a42.666667 42.666667 0 1 1 0-85.333333 42.666667 42.666667 0 0 1 0 85.333333zM341.333333 170.666667a170.666667 170.666667 0 0 0-170.666666 170.666666v341.333334a170.666667 170.666667 0 0 0 170.666666 170.666666h341.333334a170.666667 170.666667 0 0 0 170.666666-170.666666V341.333333a170.666667 170.666667 0 0 0-170.666666-170.666666H341.333333z m0-85.333334h341.333334a256 256 0 0 1 256 256v341.333334a256 256 0 0 1-256 256H341.333333a256 256 0 0 1-256-256V341.333333a256 256 0 0 1 256-256z m90.88 624.554667a42.666667 42.666667 0 0 1 31.957334-79.104 128 128 0 1 0-70.869334-70.826667 42.666667 42.666667 0 1 1-79.104 32 213.333333 213.333333 0 1 1 118.058667 117.930667z" fill="#31303D" p-id="2177"></path></svg>