<svg width="212" height="43" viewBox="0 0 212 43" fill="none" xmlns="http://www.w3.org/2000/svg">
<path d="M15.7756 0C17.0588 0.227401 18.342 0.451408 19.6252 0.678809V42.9109C18.3386 43.0297 17.0656 43.0297 15.7756 42.9109V0Z" fill="url(#paint0_linear_110_26)"/>
<path d="M17.697 39.1504V42.9992C33.0816 42.9992 43.3267 27.1117 36.9821 13.1011C36.9787 13.2776 36.9685 13.4507 36.9583 13.6272C36.9244 14.1261 36.8633 14.625 36.7716 15.1171C36.6799 15.6093 36.5577 16.0946 36.4084 16.5732C36.1809 17.2927 35.8924 17.9885 35.5359 18.6537C35.3391 19.0203 35.1252 19.3733 34.891 19.7161C36.164 30.0408 28.105 39.1504 17.7004 39.1504H17.697Z" fill="url(#paint1_linear_110_26)"/>
<path d="M17.697 39.1502V42.9991C14.6588 42.9991 11.9227 42.4221 9.14585 41.1968C8.5416 40.9321 7.95093 40.6368 7.37723 40.3144C6.81711 40.0021 6.27397 39.6661 5.7478 39.2996C5.24199 38.95 4.75656 38.5732 4.29149 38.1693C3.84339 37.779 3.41906 37.3616 3.02528 36.9203C2.64169 36.4893 2.28525 36.0311 1.96615 35.5491C1.65045 35.074 1.36869 34.5784 1.12767 34.0625C0.886649 33.5466 0.679576 33.0138 0.516633 32.4673C0.350294 31.9141 0.224692 31.3507 0.139825 30.7805C0.0889056 30.4343 0.0515637 30.0847 0.0278011 29.7351C0.0074332 29.4331 -0.0027514 29.131 0.000643261 28.8255C0.000643261 28.5133 0.0142221 28.2044 0.0379847 27.8922C0.0617473 27.5731 0.0990891 27.2541 0.150009 26.9384C0.200929 26.6126 0.265427 26.2868 0.343504 25.9643C0.424976 25.6317 0.520025 25.2991 0.628654 24.9733C0.744073 24.6339 0.87307 24.3013 1.01904 23.972C1.1718 23.6292 1.34493 23.2966 1.53163 22.9742C1.73192 22.6348 1.94918 22.3056 2.1868 21.9899C2.43801 21.6539 2.70958 21.3349 3.00152 21.0362C3.19841 20.8326 3.40209 20.6391 3.61595 20.4524C3.81963 20.2759 4.02671 20.1062 4.24396 19.9467C4.62077 19.6684 5.01795 19.4206 5.43549 19.2068C5.64596 19.0982 5.86321 18.9998 6.08387 18.9081C6.46746 18.752 6.86464 18.6264 7.2686 18.528C7.64881 18.4364 8.0324 18.3719 8.41939 18.3244C8.78941 18.2802 9.16282 18.2565 9.53623 18.2497C9.71955 18.2463 9.89946 18.2429 10.0828 18.2463C10.2627 18.2463 10.4426 18.2531 10.6191 18.2599C10.7957 18.2667 10.9756 18.2768 11.1521 18.287C11.332 18.2972 11.5085 18.3108 11.6884 18.3244C12.0449 18.3515 12.3979 18.3854 12.7544 18.4228C13.1108 18.4601 13.4672 18.5008 13.8271 18.5416C14.1869 18.5823 14.5468 18.6264 14.91 18.6705C15.1748 18.7045 15.4395 18.735 15.7043 18.769C16.682 18.8912 17.6596 19.0167 18.6373 19.1389C19.5708 19.2577 20.5044 19.3765 21.4379 19.4919C21.7604 19.5326 22.0829 19.5734 22.4054 19.6107C22.7754 19.6548 23.1454 19.6989 23.512 19.7431C23.8685 19.7838 24.2215 19.8245 24.578 19.8585C24.914 19.8924 25.2501 19.9229 25.5862 19.9467C25.8985 19.9705 26.2142 19.9874 26.5299 19.9942C26.8184 20.001 27.107 20.001 27.3955 19.9874C27.6569 19.9739 27.9183 19.9501 28.1763 19.9094C28.3053 19.889 28.4377 19.8652 28.5667 19.8347C28.6821 19.8075 28.7975 19.777 28.9095 19.7431C29.0216 19.7091 29.1336 19.6684 29.2422 19.6243C29.3542 19.5801 29.4663 19.5292 29.5749 19.4749C29.6903 19.4172 29.8023 19.3527 29.9144 19.2849C30.0366 19.2102 30.1554 19.1287 30.2674 19.0439C30.3557 18.9794 30.4405 18.9115 30.5254 18.8402C30.6544 18.7316 30.78 18.6196 30.8988 18.5008C31.1466 18.2599 31.3707 17.9951 31.5777 17.7168C31.7916 17.4283 31.9851 17.1195 32.1548 16.8004C32.3314 16.4712 32.4841 16.125 32.6131 15.7754C32.7455 15.4123 32.8541 15.0423 32.9356 14.669C33.0205 14.2922 33.0782 13.9087 33.1121 13.5218C33.1427 13.162 33.1529 12.8022 33.1359 12.4425C33.1223 12.1166 33.0884 11.7908 33.0374 11.4684C32.9865 11.1561 32.9152 10.8473 32.8236 10.5452C32.7353 10.2533 32.6267 9.96821 32.5011 9.69329C32.3789 9.42856 32.2363 9.17061 32.0768 8.92624C31.9206 8.68526 31.7441 8.45786 31.554 8.24404C31.3605 8.02682 31.1534 7.82657 30.9294 7.64329C30.6985 7.45323 30.4541 7.27673 30.1995 7.12061C29.9279 6.9543 29.6462 6.80496 29.3576 6.67259C29.0453 6.53005 28.7228 6.40786 28.4003 6.29586C28.0473 6.17706 27.6875 6.07524 27.3242 5.9836C26.9338 5.88518 26.5401 5.80372 26.1463 5.72566C25.722 5.64081 25.2942 5.56614 24.8665 5.49147C23.1217 5.18261 21.3768 4.87714 19.6319 4.56829V0.678711C21.5974 1.0249 23.5663 1.3711 25.5319 1.72068C25.9528 1.79535 26.3703 1.87002 26.7913 1.94808C27.202 2.02615 27.6128 2.11439 28.0235 2.20943C28.4377 2.30785 28.8518 2.41986 29.2592 2.54544C29.6699 2.67441 30.0773 2.81696 30.4779 2.97987C30.8784 3.14279 31.2722 3.32607 31.6524 3.5331C31.8425 3.63492 32.0292 3.74353 32.2125 3.85554C32.3959 3.96754 32.5758 4.08633 32.7523 4.21191C32.9288 4.33749 33.1019 4.46647 33.2683 4.60223C33.438 4.73799 33.601 4.87714 33.7605 5.02309C34.0796 5.31498 34.3749 5.62723 34.6533 5.95985C34.9283 6.29246 35.1829 6.64205 35.4103 7.00861C35.6378 7.37516 35.8448 7.7553 36.0213 8.149C36.2013 8.54271 36.354 8.95 36.483 9.36407C36.612 9.78154 36.7173 10.2058 36.7987 10.6334C36.8802 11.0645 36.9345 11.4989 36.9651 11.9368C37.0058 12.5002 37.0058 13.0636 36.9685 13.627C36.9345 14.1259 36.8734 14.6248 36.7817 15.117C36.6901 15.6091 36.5679 16.0945 36.4185 16.573C36.1911 17.2926 35.9025 17.9883 35.5461 18.6536C35.3119 19.0914 35.0471 19.5157 34.7585 19.9196C34.47 20.32 34.1543 20.7002 33.8114 21.0566C33.4787 21.4028 33.1189 21.7286 32.7387 22.0239C32.5554 22.1664 32.3687 22.2988 32.1786 22.4278C31.8188 22.6653 31.4386 22.8792 31.0448 23.059C30.7528 23.1914 30.4541 23.3102 30.1452 23.4086C29.782 23.5274 29.4086 23.6191 29.0317 23.6869C28.8518 23.7209 28.6719 23.748 28.4886 23.7718C28.3121 23.7956 28.1322 23.8125 27.9556 23.8261C27.7791 23.8397 27.606 23.8499 27.4295 23.8566C27.2563 23.8634 27.0832 23.8668 26.9101 23.8668C26.5706 23.8668 26.2312 23.8566 25.8883 23.8397C25.5488 23.8227 25.2128 23.7989 24.8767 23.7684C24.5406 23.7412 24.2011 23.7073 23.8651 23.67C23.5256 23.6326 23.1895 23.5953 22.8501 23.558C22.5072 23.5172 22.1678 23.4765 21.8249 23.4358C21.5601 23.4018 21.2953 23.3713 21.0271 23.3374C20.0699 23.2186 19.1092 23.0964 18.1519 22.9742C17.198 22.852 16.2475 22.7332 15.2936 22.6144C14.9711 22.5737 14.6486 22.533 14.3261 22.4956C13.9391 22.4481 13.5521 22.4006 13.1685 22.3565C12.7985 22.3158 12.4285 22.275 12.0551 22.2377C11.7054 22.2037 11.3558 22.1732 11.0061 22.1528C10.6802 22.1325 10.3577 22.1189 10.0319 22.1155C9.73652 22.1155 9.44118 22.1189 9.14924 22.1427C8.91501 22.1596 8.68418 22.1868 8.45334 22.2309C8.33113 22.2547 8.20553 22.2818 8.08672 22.3124C7.9679 22.3429 7.84909 22.3802 7.73367 22.421C7.61486 22.4617 7.49944 22.5092 7.38402 22.5601C7.26521 22.6144 7.1464 22.6721 7.03437 22.7366C6.90877 22.8079 6.78656 22.8826 6.67114 22.964C6.53196 23.059 6.39957 23.1609 6.27057 23.2661C6.1246 23.3883 5.98542 23.5138 5.84964 23.6496C5.75798 23.7412 5.66972 23.8329 5.58486 23.9313C5.4898 24.0365 5.40154 24.1451 5.31668 24.2571C5.15034 24.471 5.00097 24.6984 4.86179 24.9326C4.7294 25.16 4.61059 25.3941 4.50535 25.6317C4.41709 25.832 4.33902 26.0356 4.27112 26.2427C4.18965 26.4836 4.12176 26.728 4.06744 26.9758C4.01313 27.2201 3.969 27.4645 3.93505 27.7089C3.90111 27.9499 3.88074 28.1908 3.86716 28.4318C3.84339 28.9002 3.85358 29.3686 3.9045 29.8336C3.95202 30.2985 4.04029 30.7567 4.16589 31.2081C4.2236 31.4118 4.2881 31.6154 4.35938 31.8123C4.42388 31.9922 4.49856 32.1653 4.57664 32.3384C4.66151 32.5284 4.75656 32.7117 4.8584 32.895C5.06547 33.2683 5.3031 33.6213 5.56788 33.9573C5.85303 34.3171 6.16534 34.6565 6.49802 34.9721C6.68812 35.152 6.88501 35.3251 7.08869 35.4948C7.28897 35.6611 7.49604 35.8207 7.70991 35.9734C7.93056 36.1329 8.158 36.289 8.38884 36.4384C8.62986 36.5945 8.87428 36.7404 9.12209 36.883C9.37669 37.0289 9.63807 37.1681 9.90286 37.3005C10.171 37.4362 10.4426 37.5652 10.7176 37.684C12.992 38.6886 15.2291 39.1604 17.714 39.1604L17.697 39.1502Z" fill="url(#paint2_linear_110_26)"/>
<path d="M62.491 34.6263C64.0347 34.6263 65.3066 34.5029 66.3131 34.2559C67.3164 34.009 68.3105 33.654 69.2985 33.191L70.271 36.6173C69.1904 37.142 68.008 37.5279 66.7268 37.7748C65.4455 38.0217 63.8772 38.1452 62.0248 38.1452C60.1725 38.1452 58.3047 37.8211 56.6067 37.1729C54.9087 36.5247 53.4329 35.5678 52.1826 34.3022C50.9322 33.0367 49.9443 31.4717 49.2188 29.6012C48.4933 27.7337 48.1321 25.5822 48.1321 23.1437C48.1321 20.7052 48.4871 18.6464 49.1972 16.7758C49.9073 14.9083 50.8859 13.3341 52.1363 12.0531C53.3866 10.7721 54.8747 9.79982 56.6067 9.13617C58.3355 8.47253 60.2188 8.13916 62.2564 8.13916C64.1705 8.13916 65.745 8.2935 66.9799 8.60217C68.2148 8.91084 69.3571 9.32755 70.4068 9.85229L69.388 13.186C68.8014 12.939 68.2519 12.7168 67.7425 12.5161C67.2331 12.3155 66.7237 12.155 66.2143 12.0284C65.7049 11.905 65.18 11.8124 64.6398 11.7506C64.0995 11.6889 63.4882 11.658 62.809 11.658C61.4506 11.658 60.1601 11.8679 58.9437 12.2846C57.7243 12.7013 56.6591 13.3712 55.7484 14.2972C54.8377 15.2232 54.1121 16.4208 53.5719 17.8839C53.0316 19.3501 52.763 21.1188 52.763 23.1839C52.763 25.2489 53.0254 27.0577 53.5503 28.5085C54.0751 29.9592 54.779 31.1322 55.6589 32.0273C56.5387 32.9225 57.5637 33.5799 58.74 33.9966C59.9131 34.4134 61.1635 34.6233 62.491 34.6233V34.6263Z" fill="#3E3E3E"/>
<path d="M90.7888 27.3109H75.1827V27.4961C75.1827 29.9037 75.8371 31.7558 77.1523 33.0522C78.4644 34.3486 80.2458 34.9968 82.5026 34.9968C83.6758 34.9968 84.7162 34.9042 85.6269 34.719C86.5377 34.5338 87.5318 34.2251 88.6123 33.793L89.4459 36.8026C88.5506 37.2038 87.4916 37.5279 86.2752 37.7749C85.0558 38.0218 83.7499 38.1453 82.3606 38.1453C80.7861 38.1453 79.3103 37.9292 77.9396 37.4971C76.5658 37.0649 75.3525 36.3951 74.3028 35.4814C73.2531 34.5709 72.4288 33.4072 71.8268 31.9873C71.2248 30.5674 70.9253 28.8697 70.9253 26.8942C70.9253 25.1965 71.1784 23.6531 71.6909 22.2641C72.2003 20.8751 72.9166 19.6959 73.8428 18.7205C74.769 17.7482 75.8865 16.992 77.2017 16.4518C78.5138 15.9116 79.9865 15.6431 81.6258 15.6431C83.0151 15.6431 84.2716 15.8746 85.4015 16.3376C86.5284 16.8006 87.4916 17.4488 88.2974 18.2822C89.1001 19.1156 89.7176 20.1188 90.1498 21.2918C90.582 22.4647 90.7981 23.7612 90.7981 25.181V27.3109H90.7888ZM86.5747 24.3939C86.5747 23.5914 86.4728 22.8413 86.2752 22.1468C86.0746 21.4523 85.7658 20.8442 85.3491 20.3195C84.9323 19.7947 84.3982 19.378 83.7499 19.0693C83.1015 18.7607 82.3143 18.6063 81.3881 18.6063C79.6901 18.6063 78.307 19.1465 77.245 20.2269C76.1798 21.3072 75.5223 22.7271 75.2753 24.4865L86.5747 24.3939Z" fill="#3E3E3E"/>
<path d="M93.6384 37.7286V4.85498H97.621V37.7286H93.6384Z" fill="#3E3E3E"/>
<path d="M120.445 27.3109H104.839V27.4961C104.839 29.9037 105.494 31.7558 106.809 33.0522C108.121 34.3486 109.902 34.9968 112.156 34.9968C113.329 34.9968 114.37 34.9042 115.28 34.719C116.191 34.5338 117.185 34.2251 118.269 33.793L119.102 36.8026C118.207 37.2038 117.148 37.5279 115.929 37.7749C114.709 38.0218 113.406 38.1453 112.017 38.1453C110.443 38.1453 108.967 37.9292 107.593 37.4971C106.219 37.0649 105.006 36.3951 103.956 35.4814C102.907 34.5709 102.082 33.4072 101.48 31.9873C100.878 30.5674 100.576 28.8697 100.576 26.8942C100.576 25.1965 100.829 23.6531 101.338 22.2641C101.848 20.8751 102.564 19.6959 103.49 18.7205C104.416 17.7482 105.534 16.992 106.849 16.4518C108.161 15.9116 109.634 15.6431 111.273 15.6431C112.662 15.6431 113.919 15.8746 115.046 16.3376C116.173 16.8006 117.136 17.4488 117.942 18.2822C118.744 19.1156 119.362 20.1188 119.794 21.2918C120.226 22.4647 120.442 23.7612 120.442 25.181V27.3109H120.445ZM116.231 24.3939C116.231 23.5914 116.132 22.8413 115.932 22.1468C115.731 21.4523 115.422 20.8442 115.006 20.3195C114.589 19.7947 114.058 19.378 113.409 19.0693C112.761 18.7607 111.974 18.6063 111.048 18.6063C109.35 18.6063 107.97 19.1465 106.902 20.2269C105.836 21.3072 105.179 22.7271 104.932 24.4865L116.231 24.3939Z" fill="#3E3E3E"/>
<path d="M123.78 8.55908H132.949C134.462 8.55908 135.835 8.75355 137.07 9.13939C138.305 9.52523 139.37 10.0963 140.266 10.8525C141.161 11.6088 141.856 12.5348 142.35 13.6306C142.844 14.7264 143.09 15.9857 143.09 17.4056C143.09 18.949 142.828 20.2855 142.303 21.4122C141.778 22.5389 141.037 23.4741 140.08 24.2149C139.123 24.9558 137.996 25.5114 136.7 25.8818C135.403 26.2522 133.968 26.4374 132.393 26.4374H128.04V37.7348H123.78V8.55908ZM128.04 22.9587H130.68C131.822 22.9587 132.887 22.8815 133.875 22.7271C134.863 22.5728 135.703 22.295 136.397 21.8937C137.092 21.4925 137.638 20.9307 138.043 20.2022C138.444 19.4768 138.645 18.557 138.645 17.4458C138.645 16.4271 138.45 15.5721 138.064 14.8776C137.678 14.1831 137.175 13.6213 136.558 13.1861C135.94 12.7539 135.23 12.4453 134.428 12.2601C133.625 12.0749 132.807 11.9823 131.973 11.9823H128.037V22.9556L128.04 22.9587Z" fill="#3E3E3E"/>
<path d="M159.823 15.967H163.899V37.7284H160.703L160.148 34.9966H159.962C159.16 35.8918 158.163 36.6387 156.974 37.2407C155.785 37.8426 154.405 38.142 152.831 38.142C150.577 38.142 148.746 37.503 147.345 36.222C145.94 34.941 145.236 33.0057 145.236 30.4097V15.9639H149.311V29.9004C149.311 30.8264 149.429 31.6136 149.657 32.2618C149.889 32.91 150.197 33.4286 150.583 33.8144C150.969 34.2002 151.423 34.478 151.948 34.6478C152.473 34.8176 153.044 34.9009 153.661 34.9009C154.896 34.9009 156.008 34.6385 156.996 34.1138C157.983 33.5891 158.925 32.8637 159.82 31.9377V15.9639L159.823 15.967Z" fill="#3E3E3E"/>
<path d="M168.005 37.7286V4.85498H171.987V37.7286H168.005Z" fill="#3E3E3E"/>
<path d="M188.381 20.0416C187.362 19.5478 186.436 19.2082 185.602 19.023C184.769 18.8378 183.935 18.7452 183.102 18.7452C181.62 18.7452 180.524 19.0169 179.814 19.5539C179.104 20.0941 178.749 20.8133 178.749 21.7085C178.749 22.3567 178.996 22.9216 179.49 23.4C179.984 23.8784 181.018 24.3476 182.592 24.8106L183.982 25.2273C186.05 25.8447 187.618 26.6411 188.684 27.6103C189.749 28.5826 190.28 29.9037 190.28 31.5706C190.28 33.5461 189.545 35.1357 188.082 36.3396C186.615 37.5434 184.568 38.1453 181.944 38.1453C180.555 38.1453 179.218 38.0218 177.937 37.7749C176.656 37.5279 175.553 37.1884 174.627 36.7563L175.6 33.5615C176.495 33.9936 177.467 34.3424 178.517 34.6048C179.567 34.8672 180.632 34.9999 181.713 34.9999C183.102 34.9999 184.204 34.753 185.022 34.2591C185.84 33.7652 186.251 32.9472 186.251 31.8052C186.251 30.8174 185.896 30.1167 185.186 29.6969C184.476 29.2802 183.457 28.8728 182.129 28.4715L180.694 28.0085C178.687 27.3603 177.196 26.5485 176.223 25.5761C175.251 24.6038 174.766 23.3475 174.766 21.8011C174.766 20.8751 174.967 20.0262 175.368 19.2545C175.769 18.4829 176.316 17.8346 177.011 17.3099C177.705 16.7852 178.53 16.3777 179.49 16.0814C180.447 15.7881 181.496 15.6431 182.639 15.6431C183.719 15.6431 184.837 15.7449 185.998 15.9425C187.155 16.1431 188.258 16.4765 189.307 16.9395L188.381 20.0416Z" fill="#3E3E3E"/>
<path d="M211.585 27.3109H195.979V27.4961C195.979 29.9037 196.633 31.7558 197.948 33.0522C199.26 34.3486 201.042 34.9968 203.296 34.9968C204.469 34.9968 205.509 34.9042 206.42 34.719C207.331 34.5338 208.325 34.2251 209.408 33.793L210.242 36.8026C209.347 37.2038 208.288 37.5279 207.071 37.7749C205.852 38.0218 204.549 38.1453 203.16 38.1453C201.585 38.1453 200.109 37.9292 198.736 37.4971C197.362 37.0649 196.149 36.3951 195.099 35.4814C194.049 34.5709 193.222 33.4072 192.623 31.9873C192.021 30.5674 191.718 28.8697 191.718 26.8942C191.718 25.1965 191.975 23.6531 192.484 22.2641C192.993 20.8751 193.71 19.6959 194.636 18.7205C195.562 17.7482 196.68 16.992 197.995 16.4518C199.307 15.9116 200.779 15.6431 202.419 15.6431C203.808 15.6431 205.065 15.8746 206.191 16.3376C207.318 16.8006 208.282 17.4488 209.087 18.2822C209.89 19.1156 210.507 20.1188 210.94 21.2918C211.372 22.4647 211.588 23.7612 211.588 25.181V27.3109H211.585ZM207.371 24.3939C207.371 23.5914 207.269 22.8413 207.071 22.1468C206.871 21.4523 206.562 20.8442 206.145 20.3195C205.728 19.7947 205.194 19.378 204.549 19.0693C203.901 18.7607 203.113 18.6063 202.187 18.6063C200.489 18.6063 199.109 19.1465 198.044 20.2269C196.979 21.3072 196.321 22.7271 196.074 24.4865L207.374 24.3939H207.371Z" fill="#3E3E3E"/>
<defs>
<linearGradient id="paint0_linear_110_26" x1="17.697" y1="42.9991" x2="17.697" y2="0" gradientUnits="userSpaceOnUse">
<stop stop-color="#1F6AFF" stop-opacity="0.5"/>
<stop offset="0.78" stop-color="#B253AA"/>
<stop offset="1" stop-color="#DC4C92"/>
</linearGradient>
<linearGradient id="paint1_linear_110_26" x1="-30.6225" y1="41.7536" x2="-30.2832" y2="0.271583" gradientUnits="userSpaceOnUse">
<stop stop-color="#1F6AFF"/>
<stop offset="1" stop-color="#DC4C92" stop-opacity="0.5"/>
</linearGradient>
<linearGradient id="paint2_linear_110_26" x1="18.4913" y1="42.9991" x2="18.4913" y2="-9.91049e-05" gradientUnits="userSpaceOnUse">
<stop stop-color="#1F6AFF"/>
<stop offset="1" stop-color="#DC4C92"/>
</linearGradient>
</defs>
</svg>
