<svg width="39" height="43" viewBox="0 0 39 43" fill="none" xmlns="http://www.w3.org/2000/svg">
<style>
  @media (prefers-color-scheme: dark) {
    path { fill: white !important; }
  }
</style>
<path d="M15.7756 0C17.0588 0.227401 18.342 0.451408 19.6252 0.678809V42.9109C18.3386 43.0297 17.0656 43.0297 15.7756 42.9109V0Z" fill="url(#paint0_linear_110_27)"/>
<path d="M17.697 39.1504V42.9992C33.0816 42.9992 43.3267 27.1117 36.9821 13.1011C36.9787 13.2776 36.9685 13.4507 36.9583 13.6272C36.9244 14.1261 36.8633 14.625 36.7716 15.1171C36.6799 15.6093 36.5577 16.0946 36.4084 16.5732C36.1809 17.2927 35.8924 17.9885 35.5359 18.6537C35.3391 19.0203 35.1252 19.3733 34.891 19.7161C36.164 30.0408 28.105 39.1504 17.7004 39.1504H17.697Z" fill="url(#paint1_linear_110_27)"/>
<path d="M17.697 39.1502V42.9991C14.6588 42.9991 11.9227 42.4221 9.14585 41.1968C8.5416 40.9321 7.95093 40.6368 7.37723 40.3144C6.81711 40.0021 6.27397 39.6661 5.7478 39.2996C5.24199 38.95 4.75656 38.5732 4.29149 38.1693C3.84339 37.779 3.41906 37.3616 3.02528 36.9203C2.64169 36.4893 2.28525 36.0311 1.96615 35.5491C1.65045 35.074 1.36869 34.5784 1.12767 34.0625C0.886649 33.5466 0.679576 33.0138 0.516633 32.4673C0.350294 31.9141 0.224692 31.3507 0.139825 30.7805C0.0889056 30.4343 0.0515637 30.0847 0.0278011 29.7351C0.0074332 29.4331 -0.0027514 29.131 0.000643261 28.8255C0.000643261 28.5133 0.0142221 28.2044 0.0379847 27.8922C0.0617473 27.5731 0.0990891 27.2541 0.150009 26.9384C0.200929 26.6126 0.265427 26.2868 0.343504 25.9643C0.424976 25.6317 0.520025 25.2991 0.628654 24.9733C0.744073 24.6339 0.87307 24.3013 1.01904 23.972C1.1718 23.6292 1.34493 23.2966 1.53163 22.9742C1.73192 22.6348 1.94918 22.3056 2.1868 21.9899C2.43801 21.6539 2.70958 21.3349 3.00152 21.0362C3.19841 20.8326 3.40209 20.6391 3.61595 20.4524C3.81963 20.2759 4.02671 20.1062 4.24396 19.9467C4.62077 19.6684 5.01795 19.4206 5.43549 19.2068C5.64596 19.0982 5.86321 18.9998 6.08387 18.9081C6.46746 18.752 6.86464 18.6264 7.2686 18.528C7.64881 18.4364 8.0324 18.3719 8.41939 18.3244C8.78941 18.2802 9.16282 18.2565 9.53623 18.2497C9.71955 18.2463 9.89946 18.2429 10.0828 18.2463C10.2627 18.2463 10.4426 18.2531 10.6191 18.2599C10.7957 18.2667 10.9756 18.2768 11.1521 18.287C11.332 18.2972 11.5085 18.3108 11.6884 18.3244C12.0449 18.3515 12.3979 18.3854 12.7544 18.4228C13.1108 18.4601 13.4672 18.5008 13.8271 18.5416C14.1869 18.5823 14.5468 18.6264 14.91 18.6705C15.1748 18.7045 15.4395 18.735 15.7043 18.769C16.682 18.8912 17.6596 19.0167 18.6373 19.1389C19.5708 19.2577 20.5044 19.3765 21.4379 19.4919C21.7604 19.5326 22.0829 19.5734 22.4054 19.6107C22.7754 19.6548 23.1454 19.6989 23.512 19.7431C23.8685 19.7838 24.2215 19.8245 24.578 19.8585C24.914 19.8924 25.2501 19.9229 25.5862 19.9467C25.8985 19.9705 26.2142 19.9874 26.5299 19.9942C26.8184 20.001 27.107 20.001 27.3955 19.9874C27.6569 19.9739 27.9183 19.9501 28.1763 19.9094C28.3053 19.889 28.4377 19.8652 28.5667 19.8347C28.6821 19.8075 28.7975 19.777 28.9095 19.7431C29.0216 19.7091 29.1336 19.6684 29.2422 19.6243C29.3542 19.5801 29.4663 19.5292 29.5749 19.4749C29.6903 19.4172 29.8023 19.3527 29.9144 19.2849C30.0366 19.2102 30.1554 19.1287 30.2674 19.0439C30.3557 18.9794 30.4405 18.9115 30.5254 18.8402C30.6544 18.7316 30.78 18.6196 30.8988 18.5008C31.1466 18.2599 31.3707 17.9951 31.5777 17.7168C31.7916 17.4283 31.9851 17.1195 32.1548 16.8004C32.3314 16.4712 32.4841 16.125 32.6131 15.7754C32.7455 15.4123 32.8541 15.0423 32.9356 14.669C33.0205 14.2922 33.0782 13.9087 33.1121 13.5218C33.1427 13.162 33.1529 12.8022 33.1359 12.4425C33.1223 12.1166 33.0884 11.7908 33.0374 11.4684C32.9865 11.1561 32.9152 10.8473 32.8236 10.5452C32.7353 10.2533 32.6267 9.96821 32.5011 9.69329C32.3789 9.42856 32.2363 9.17061 32.0768 8.92624C31.9206 8.68526 31.7441 8.45786 31.554 8.24404C31.3605 8.02682 31.1534 7.82657 30.9294 7.64329C30.6985 7.45323 30.4541 7.27673 30.1995 7.12061C29.9279 6.9543 29.6462 6.80496 29.3576 6.67259C29.0453 6.53005 28.7228 6.40786 28.4003 6.29586C28.0473 6.17706 27.6875 6.07524 27.3242 5.9836C26.9338 5.88518 26.5401 5.80372 26.1463 5.72566C25.722 5.64081 25.2942 5.56614 24.8665 5.49147C23.1217 5.18261 21.3768 4.87714 19.6319 4.56829V0.678711C21.5974 1.0249 23.5663 1.3711 25.5319 1.72068C25.9528 1.79535 26.3703 1.87002 26.7913 1.94808C27.202 2.02615 27.6128 2.11439 28.0235 2.20943C28.4377 2.30785 28.8518 2.41986 29.2592 2.54544C29.6699 2.67441 30.0773 2.81696 30.4779 2.97987C30.8784 3.14279 31.2722 3.32607 31.6524 3.5331C31.8425 3.63492 32.0292 3.74353 32.2125 3.85554C32.3959 3.96754 32.5758 4.08633 32.7523 4.21191C32.9288 4.33749 33.1019 4.46647 33.2683 4.60223C33.438 4.73799 33.601 4.87714 33.7605 5.02309C34.0796 5.31498 34.3749 5.62723 34.6533 5.95985C34.9283 6.29246 35.1829 6.64205 35.4103 7.00861C35.6378 7.37516 35.8448 7.7553 36.0213 8.149C36.2013 8.54271 36.354 8.95 36.483 9.36407C36.612 9.78154 36.7173 10.2058 36.7987 10.6334C36.8802 11.0645 36.9345 11.4989 36.9651 11.9368C37.0058 12.5002 37.0058 13.0636 36.9685 13.627C36.9345 14.1259 36.8734 14.6248 36.7817 15.117C36.6901 15.6091 36.5679 16.0945 36.4084 16.573C36.1911 17.2926 35.9025 17.9883 35.5461 18.6536C35.3119 19.0914 35.0471 19.5157 34.7585 19.9196C34.47 20.32 34.1543 20.7002 33.8114 21.0566C33.4787 21.4028 33.1189 21.7286 32.7387 22.0239C32.5554 22.1664 32.3687 22.2988 32.1786 22.4278C31.8188 22.6653 31.4386 22.8792 31.0448 23.059C30.7528 23.1914 30.4541 23.3102 30.1452 23.4086C29.782 23.5274 29.4086 23.6191 29.0317 23.6869C28.8518 23.7209 28.6719 23.748 28.4886 23.7718C28.3121 23.7956 28.1322 23.8125 27.9556 23.8261C27.7791 23.8397 27.606 23.8499 27.4295 23.8566C27.2563 23.8634 27.0832 23.8668 26.9101 23.8668C26.5706 23.8668 26.2312 23.8566 25.8883 23.8397C25.5488 23.8227 25.2128 23.7989 24.8767 23.7684C24.5406 23.7412 24.2011 23.7073 23.8651 23.67C23.5256 23.6326 23.1895 23.5953 22.8501 23.558C22.5072 23.5172 22.1678 23.4765 21.8249 23.4358C21.5601 23.4018 21.2953 23.3713 21.0271 23.3374C20.0699 23.2186 19.1092 23.0964 18.1519 22.9742C17.198 22.852 16.2475 22.7332 15.2936 22.6144C14.9711 22.5737 14.6486 22.533 14.3261 22.4956C13.9391 22.4481 13.5521 22.4006 13.1685 22.3565C12.7985 22.3158 12.4285 22.275 12.0551 22.2377C11.7054 22.2037 11.3558 22.1732 11.0061 22.1528C10.6802 22.1325 10.3577 22.1189 10.0319 22.1155C9.73652 22.1155 9.44118 22.1189 9.14924 22.1427C8.91501 22.1596 8.68418 22.1868 8.45334 22.2309C8.33113 22.2547 8.20553 22.2818 8.08672 22.3124C7.9679 22.3429 7.84909 22.3802 7.73367 22.421C7.61486 22.4617 7.49944 22.5092 7.38402 22.5601C7.26521 22.6144 7.1464 22.6721 7.03437 22.7366C6.90877 22.8079 6.78656 22.8826 6.67114 22.964C6.53196 23.059 6.39957 23.1609 6.27057 23.2661C6.1246 23.3883 5.98542 23.5138 5.84964 23.6496C5.75798 23.7412 5.66972 23.8329 5.58486 23.9313C5.4898 24.0365 5.40154 24.1451 5.31668 24.2571C5.15034 24.471 5.00097 24.6984 4.86179 24.9326C4.7294 25.16 4.61059 25.3941 4.50535 25.6317C4.41709 25.832 4.33902 26.0356 4.27112 26.2427C4.18965 26.4836 4.12176 26.728 4.06744 26.9758C4.01313 27.2201 3.969 27.4645 3.93505 27.7089C3.90111 27.9499 3.88074 28.1908 3.86716 28.4318C3.84339 28.9002 3.85358 29.3686 3.9045 29.8336C3.95202 30.2985 4.04029 30.7567 4.16589 31.2081C4.2236 31.4118 4.2881 31.6154 4.35938 31.8123C4.42388 31.9922 4.49856 32.1653 4.57664 32.3384C4.66151 32.5284 4.75656 32.7117 4.8584 32.895C5.06547 33.2683 5.3031 33.6213 5.56788 33.9573C5.85303 34.3171 6.16534 34.6565 6.49802 34.9721C6.68812 35.152 6.88501 35.3251 7.08869 35.4948C7.28897 35.6611 7.49604 35.8207 7.70991 35.9734C7.93056 36.1329 8.158 36.289 8.38884 36.4384C8.62986 36.5945 8.87428 36.7404 9.12209 36.883C9.37669 37.0289 9.63807 37.1681 9.90286 37.3005C10.171 37.4362 10.4426 37.5652 10.7176 37.684C12.992 38.6886 15.2291 39.1604 17.714 39.1604L17.697 39.1502Z" fill="url(#paint2_linear_110_27)"/>
<defs>
<linearGradient id="paint0_linear_110_27" x1="17.697" y1="42.9991" x2="17.697" y2="0" gradientUnits="userSpaceOnUse">
<stop stop-color="#1F6AFF" stop-opacity="0.5"/>
<stop offset="0.78" stop-color="#B253AA"/>
<stop offset="1" stop-color="#DC4C92"/>
</linearGradient>
<linearGradient id="paint1_linear_110_27" x1="-30.6225" y1="41.7536" x2="-30.2832" y2="0.271583" gradientUnits="userSpaceOnUse">
<stop stop-color="#1F6AFF"/>
<stop offset="1" stop-color="#DC4C92" stop-opacity="0.5"/>
</linearGradient>
<linearGradient id="paint2_linear_110_27" x1="18.4913" y1="42.9991" x2="18.4913" y2="-9.91049e-05" gradientUnits="userSpaceOnUse">
<stop stop-color="#1F6AFF"/>
<stop offset="1" stop-color="#DC4C92"/>
</linearGradient>
</defs>
</svg>